<svg width="430" height="282" viewBox="0 0 430 282" fill="none" xmlns="http://www.w3.org/2000/svg">
<rect width="430" height="282" rx="60" fill="#D9824B"/>
<circle cx="236.5" cy="87.5" r="60.5" fill="#B96027"/>
<path d="M92.0863 222.962C89.8162 218.962 92.7053 214 97.3044 214H330.705C335.514 214 338.369 219.374 335.676 223.359L326.814 236.475C320.677 245.558 310.432 251 299.471 251H127.215C115.338 251 104.378 244.618 98.5154 234.289L92.0863 222.962Z" fill="white"/>
<path d="M276.645 99.2945C280.387 101.285 283.518 104.255 285.701 107.889C287.884 111.522 289.037 115.681 289.037 119.919C289.037 124.158 287.884 128.316 285.701 131.949C283.518 135.583 280.387 138.554 276.645 140.544L176.818 194.828C160.744 203.578 141 192.202 141 174.211V65.6345C141 47.6358 160.744 36.2677 176.818 45.0022L276.645 99.2945Z" fill="white"/>
</svg>
